<svg xmlns="http://www.w3.org/2000/svg" xmlns:xlink="http://www.w3.org/1999/xlink" viewBox="0,0,256,256" width="40px" height="40px"><g transform=""><g fill="#7dece3" fill-rule="nonzero" stroke="none" stroke-width="1" stroke-linecap="butt" stroke-linejoin="miter" stroke-miterlimit="10" stroke-dasharray="" stroke-dashoffset="0" font-family="none" font-weight="none" font-size="none" text-anchor="none" style="mix-blend-mode: normal"><path d="M0,256v-256h256v256z" id="bgRectangle"></path></g><g fill="#000000" fill-rule="nonzero" stroke="none" stroke-width="1" stroke-linecap="butt" stroke-linejoin="miter" stroke-miterlimit="10" stroke-dasharray="" stroke-dashoffset="0" font-family="none" font-weight="none" font-size="none" text-anchor="none" style="mix-blend-mode: normal"><g transform="scale(4,4)"><path d="M50,0.28125c-4.61719,0 -8.71094,2.25781 -11.26172,5.71875h-25.73828c-3.85937,0 -7,3.14063 -7,7v38c0,0.11719 0.01172,0.23438 0.01563,0.35156c-0.00781,0.08594 0,0.16406 0.01563,0.24609c0.28906,3.38281 2.98828,6.08203 6.37109,6.37109c0.05078,0.00781 0.10156,0.03125 0.15625,0.03125c0.02734,0 0.05859,-0.01562 0.08984,-0.01953c0.11719,0.00781 0.23438,0.01953 0.35156,0.01953h38c3.85938,0 7,-3.14062 7,-7v-22.66797c0,-0.01562 -0.00781,-0.02734 -0.01172,-0.04687c3.10938,-4.65625 6.01172,-9.07031 6.01172,-14.00391c0,-7.71875 -6.28125,-14 -14,-14zM50,2.28125c6.61719,0 12,5.38281 12,12c0,4.39453 -2.81641,8.61719 -5.80078,13.08984c-2.37891,3.55859 -4.81641,7.21094 -6.19922,11.33984c-1.38672,-4.12891 -3.82031,-7.78125 -6.19922,-11.34375c-2.98047,-4.46875 -5.80078,-8.6875 -5.80078,-13.08594c0,-6.61719 5.38281,-12 12,-12zM13,8h24.50391c-0.95312,1.89063 -1.50391,4.01953 -1.50391,6.28125c0,1.93359 0.44922,3.78516 1.17578,5.60547c-0.03125,0.02344 -0.07031,0.03516 -0.09766,0.06641l-29.07812,29.07813v-36.03125c0,-2.75781 2.24219,-5 5,-5zM48.60547,8.23438c-0.13281,-0.01562 -0.26562,0 -0.39844,0.03906c-2.51562,0.78516 -4.20703,3.08594 -4.20703,5.72656c0,3.30859 2.69141,6 6,6c3.30859,0 6,-2.69141 6,-6c0,-0.55469 -0.44922,-1 -1,-1c-0.55078,0 -1,0.44531 -1,1c0,2.20703 -1.79297,4 -4,4c-2.20703,0 -4,-1.79297 -4,-4c0,-1.76172 1.125,-3.29297 2.80469,-3.81641c0.52734,-0.16797 0.82031,-0.73047 0.65625,-1.25391c-0.125,-0.39844 -0.46875,-0.66016 -0.85547,-0.69531zM51.82422,8.35156c-0.39062,0.00391 -0.75391,0.24609 -0.90625,0.63281c-0.20312,0.51172 0.04688,1.09375 0.5625,1.29688c0.54297,0.21875 1.04297,0.55859 1.44531,0.98828c0.19531,0.21484 0.46484,0.32031 0.73047,0.32031c0.24609,0 0.48828,-0.08984 0.68359,-0.26953c0.40234,-0.37891 0.42578,-1.01172 0.04688,-1.41406c-0.60156,-0.64453 -1.35156,-1.15625 -2.16797,-1.48437c-0.12891,-0.05078 -0.26562,-0.07422 -0.39453,-0.07031zM12,12c-0.55078,0 -1,0.44531 -1,1v2c0,0.55469 0.44922,1 1,1c0.55078,0 1,-0.44531 1,-1v-2c0,-0.55469 -0.44922,-1 -1,-1zM17,12c-0.55078,0 -1,0.44531 -1,1v2c0,0.55469 0.44922,1 1,1c0.55078,0 1,-0.44531 1,-1v-2c0,-0.55469 -0.44922,-1 -1,-1zM22,12c-0.55078,0 -1,0.44531 -1,1v2c0,0.55469 0.44922,1 1,1c0.55078,0 1,-0.44531 1,-1v-2c0,-0.55469 -0.44922,-1 -1,-1zM27,12c-0.55078,0 -1,0.44531 -1,1v2c0,0.55469 0.44922,1 1,1c0.55078,0 1,-0.44531 1,-1v-2c0,-0.55469 -0.44922,-1 -1,-1zM32,12c-0.55078,0 -1,0.44531 -1,1v2c0,0.55469 0.44922,1 1,1c0.55078,0 1,-0.44531 1,-1v-2c0,-0.55469 -0.44922,-1 -1,-1zM50,12c-1.10547,0 -2,0.89453 -2,2c0,1.10547 0.89453,2 2,2c1.10547,0 2,-0.89453 2,-2c0,-1.10547 -0.89453,-2 -2,-2zM18,18c-3.30859,0 -6,2.69141 -6,6c0,3.30859 2.69141,6 6,6c3.30859,0 6,-2.69141 6,-6c0,-0.55469 -0.44922,-1 -1,-1h-3.75c-0.55078,0 -1,0.44531 -1,1c0,0.55469 0.44922,1 1,1h2.625c-0.44531,1.72266 -2.01562,3 -3.875,3c-2.20703,0 -4,-1.79297 -4,-4c0,-2.20703 1.79297,-4 4,-4c0.66406,0 1.32422,0.16797 1.90625,0.48438c0.48438,0.26172 1.08984,0.07813 1.35547,-0.40625c0.26563,-0.48437 0.08203,-1.08984 -0.40234,-1.35547c-0.87109,-0.47266 -1.85937,-0.72266 -2.85937,-0.72266zM38.05078,21.80859c0.87109,1.73047 1.94922,3.44531 3.09766,5.18359l-28.92969,28.92969c-2.12891,-0.33594 -3.80469,-2.01172 -4.14062,-4.14062zM42.27734,28.69141c2.99219,4.48438 6.04688,9.12891 6.72656,14.55859c0.0625,0.5 0.48828,0.875 0.99219,0.875c0.50391,0 0.92969,-0.375 0.99219,-0.875c0.55078,-4.38281 2.64844,-8.25 5.01172,-11.9375v19.6875c0,0.18359 -0.03516,0.35547 -0.05469,0.53125l-4.37109,-4.375c-0.39453,-0.39062 -1.02344,-0.39062 -1.41797,0c-0.39062,0.39453 -0.39062,1.02344 0,1.41797l5.07031,5.06641c-0.88281,1.41016 -2.44141,2.35938 -4.22656,2.35938h-0.69922l-17.66406,-17.66797l3.64063,-3.64062l4.26172,4.26172c0.19531,0.19531 0.44922,0.29688 0.70703,0.29688c0.25781,0 0.51172,-0.10156 0.70703,-0.29687c0.39063,-0.39062 0.39063,-1.01953 0,-1.41016l-4.26172,-4.26562zM31.22266,39.75l16.25,16.25h-32.50391zM44.1875,40.1875c-0.25781,0 -0.51172,0.09375 -0.70703,0.29297c-0.39453,0.39063 -0.39453,1.01953 0,1.41016l1.85156,1.85547c0.19531,0.19531 0.44922,0.29297 0.70703,0.29297c0.25781,0 0.51172,-0.09766 0.70703,-0.29297c0.39063,-0.39062 0.39063,-1.02344 0,-1.41406l-1.85547,-1.85156c-0.19531,-0.19922 -0.44922,-0.29297 -0.70312,-0.29297z"></path></g></g></g></svg>